<svg width="32" height="32" viewBox="0 0 32 32" fill="none" xmlns="http://www.w3.org/2000/svg">
<g id="Frame 27">
<path id="Vector" d="M30.784 25.2622C30.88 24.7964 30.9333 24.3164 30.9333 23.8222C30.9333 21.2871 29.5964 19.0649 27.5947 17.8027C27.6836 17.216 27.7333 16.6116 27.7333 16C27.7333 9.52889 22.4676 4.26667 16 4.26667C15.3849 4.26667 14.784 4.31289 14.1938 4.40533C12.9351 2.40356 10.7129 1.06667 8.17778 1.06667C7.68356 1.06667 7.2 1.11644 6.73422 1.21244C6.02311 0.465778 5.02044 0 3.91111 0C1.75289 0 0 1.75289 0 3.91111C0 5.02044 0.465778 6.02311 1.21244 6.73422C1.11644 7.2 1.06667 7.68356 1.06667 8.17778C1.06667 10.7129 2.40356 12.9351 4.40533 14.1938C4.31289 14.784 4.26667 15.3849 4.26667 16C4.26667 22.4676 9.52889 27.7333 16 27.7333C16.6116 27.7333 17.216 27.6836 17.8027 27.5947C19.0649 29.5964 21.2871 30.9333 23.8222 30.9333C24.3164 30.9333 24.7964 30.88 25.2622 30.784C25.9769 31.5307 26.976 32 28.0889 32C30.2436 32 32 30.2436 32 28.0889C32 26.976 31.5307 25.9769 30.784 25.2622ZM1.42222 3.91111C1.42222 2.53867 2.53867 1.42222 3.91111 1.42222C5.28356 1.42222 6.4 2.53867 6.4 3.91111C6.4 5.28356 5.28356 6.4 3.91111 6.4C2.53867 6.4 1.42222 5.28356 1.42222 3.91111ZM2.48889 8.17778C2.48889 7.968 2.49956 7.76533 2.52444 7.56267C2.95467 7.72622 3.42044 7.82222 3.91111 7.82222C6.06578 7.82222 7.82222 6.06578 7.82222 3.91111C7.82222 3.42044 7.72622 2.95467 7.56267 2.52444C7.76533 2.49956 7.968 2.48889 8.17778 2.48889C10.0231 2.48889 11.6622 3.37422 12.7004 4.74311C8.87822 5.86311 5.86311 8.87822 4.74311 12.7004C3.37422 11.6622 2.48889 10.0231 2.48889 8.17778ZM18.5636 25.9876C18.2862 25.3191 18.1333 24.5867 18.1333 23.8222C18.1333 23.4276 17.8133 23.1111 17.4222 23.1111C17.0276 23.1111 16.7111 23.4276 16.7111 23.8222C16.7111 24.672 16.8676 25.4862 17.1449 26.2436C16.768 26.2862 16.3876 26.3111 16 26.3111C10.3147 26.3111 5.68889 21.6853 5.68889 16C5.68889 15.6124 5.71022 15.2284 5.75289 14.8551C6.51022 15.1289 7.32444 15.2889 8.17778 15.2889C8.56889 15.2889 8.88889 14.9689 8.88889 14.5778C8.88889 14.1831 8.56889 13.8667 8.17778 13.8667C7.40978 13.8667 6.68089 13.7102 6.01244 13.4364C6.944 9.80622 9.80622 6.944 13.4364 6.01244C13.7102 6.68089 13.8667 7.40978 13.8667 8.17778C13.8667 8.56889 14.1831 8.88889 14.5778 8.88889C14.9689 8.88889 15.2889 8.56889 15.2889 8.17778C15.2889 7.32444 15.1289 6.51022 14.8551 5.75289C15.2284 5.71022 15.6124 5.68889 16 5.68889C21.6853 5.68889 26.3111 10.3147 26.3111 16C26.3111 16.3876 26.2862 16.768 26.2436 17.1449C25.4862 16.8676 24.672 16.7111 23.8222 16.7111C23.4276 16.7111 23.1111 17.0276 23.1111 17.4222C23.1111 17.8133 23.4276 18.1333 23.8222 18.1333C24.5867 18.1333 25.3191 18.2862 25.9876 18.5636C25.056 22.1938 22.1938 25.056 18.5636 25.9876ZM24.1778 28.0889C24.1778 28.576 24.2702 29.0453 24.4373 29.4756C24.2347 29.4969 24.0284 29.5111 23.8222 29.5111C21.9769 29.5111 20.3378 28.6222 19.2996 27.2569C23.1182 26.1369 26.1369 23.1182 27.2569 19.2996C28.6222 20.3378 29.5111 21.9769 29.5111 23.8222C29.5111 24.0284 29.4969 24.2347 29.4756 24.4373C29.0453 24.2702 28.576 24.1778 28.0889 24.1778C25.9307 24.1778 24.1778 25.9307 24.1778 28.0889ZM28.0889 30.5778C26.7164 30.5778 25.6 29.4613 25.6 28.0889C25.6 26.7164 26.7164 25.6 28.0889 25.6C29.4613 25.6 30.5778 26.7164 30.5778 28.0889C30.5778 29.4613 29.4613 30.5778 28.0889 30.5778Z" fill="#E4F5FD"/>
</g>
</svg>
